<svg xmlns="http://www.w3.org/2000/svg" width="58.294" height="58.294" viewBox="0 0 58.294 58.294">
  <g id="Layer_2" data-name="Layer 2" transform="translate(0 0)">
    <g id="invisible_box" data-name="invisible box" transform="translate(0 0)">
      <rect id="Rectangle_1742" data-name="Rectangle 1742" width="58.294" height="58.294" fill="none"/>
    </g>
    <g id="icons_Q2" data-name="icons Q2" transform="translate(9.805 2.451)">
      <g id="Group_11851" data-name="Group 11851">
        <path id="Path_10289" data-name="Path 10289" d="M44.769,6.9H34.842V4.451A2.451,2.451,0,0,0,32.39,2H22.585a2.451,2.451,0,0,0-2.451,2.451V6.9H10.451A2.451,2.451,0,0,0,8,9.354V53.477a2.451,2.451,0,0,0,2.451,2.451H44.769a2.451,2.451,0,0,0,2.451-2.451V9.354A2.451,2.451,0,0,0,44.769,6.9ZM42.318,51.026H12.9V47.594a29.538,29.538,0,0,1,29.416,0Zm0-8.947a34.318,34.318,0,0,0-29.416,0V11.805H25.159V6.9h4.9v4.9H42.318Z" transform="translate(-8 -2)"/>
        <path id="Path_10290" data-name="Path 10290" d="M16,23.805A9.805,9.805,0,1,0,25.805,14,9.805,9.805,0,0,0,16,23.805Zm14.708,0a4.9,4.9,0,1,1-4.9-4.9A4.9,4.9,0,0,1,30.708,23.805Z" transform="translate(-6.195 0.708)"/>
      </g>
    </g>
  </g>
</svg>
