<svg xmlns="http://www.w3.org/2000/svg" width="50.534" height="40.646" viewBox="0 0 50.534 40.646">
  <path id="Path_960" data-name="Path 960" d="M141.373,2223.823v10.049a2.112,2.112,0,0,1-2.1,2.2H110.614a2.2,2.2,0,0,1-2.2-2.2v-36.254a2.2,2.2,0,0,1,2.2-2.2h28.663a2.112,2.112,0,0,1,2.1,2.2v10.049a2.2,2.2,0,0,1-4.394,0v-7.85H112.81v31.856h24.168v-7.851a2.2,2.2,0,0,1,4.394,0Zm16.941-9.7-8.608-8.692a2.2,2.2,0,1,0-3.123,3.092l4.914,4.961-26.661.064a2.2,2.2,0,0,0,.006,4.394h.006l26.627-.062-4.891,4.938a2.2,2.2,0,0,0,3.123,3.093l8.608-8.694A2.2,2.2,0,0,0,158.314,2214.124Z" transform="translate(-108.416 -2195.422)" fill="#ff5700"/>
</svg>
