<svg xmlns="http://www.w3.org/2000/svg" width="50.003" height="50.003" viewBox="0 0 50.003 50.003">
  <g id="Layer_2" data-name="Layer 2" transform="translate(0 0)">
    <g id="invisible_box" data-name="invisible box" transform="translate(0 0)">
      <rect id="Rectangle_15" data-name="Rectangle 15" width="50.003" height="50.003" transform="translate(0 0)" fill="none"/>
    </g>
    <g id="icons_Q2" data-name="icons Q2" transform="translate(2.109 1.512)">
      <g id="Group_27" data-name="Group 27">
        <path id="Path_19" data-name="Path 19" d="M42.269,30.673l5.8-1.581a24.246,24.246,0,0,0,0-7.8l-5.8-1.581a1.9,1.9,0,0,1-1.16-2.741L44.061,11.7a21.716,21.716,0,0,0-5.376-5.376L33.414,9.274l-.843.211a1.9,1.9,0,0,1-1.9-1.37l-1.581-5.8a24.246,24.246,0,0,0-7.8,0l-1.581,5.8a1.9,1.9,0,0,1-1.9,1.37l-.843-.211L11.7,6.322A21.716,21.716,0,0,0,6.322,11.7l2.952,5.271a1.9,1.9,0,0,1-1.16,2.741l-5.8,1.581a24.246,24.246,0,0,0,0,7.8l5.8,1.581a1.9,1.9,0,0,1,1.16,2.741L6.322,38.685A21.716,21.716,0,0,0,11.7,44.061l5.271-2.952.843-.211a1.9,1.9,0,0,1,1.9,1.37l1.581,5.8a24.246,24.246,0,0,0,7.8,0l1.581-5.8a1.9,1.9,0,0,1,1.9-1.37l.843.211,5.271,2.952a21.716,21.716,0,0,0,5.376-5.376L41.11,33.414a1.9,1.9,0,0,1,1.16-2.741ZM41,26.562h-.211a6.43,6.43,0,0,0-3.584,3.479,6.009,6.009,0,0,0,.105,5.06h.105v.211L39,37.947a3.163,3.163,0,0,1-.843.843l-2.635-1.581h-.316a5.692,5.692,0,0,0-2.635-.632,6.325,6.325,0,0,0-5.9,4.111V41h0l-.949,3.162H24.665l-.843-3.057h0V40.9a6.325,6.325,0,0,0-6.009-4.217,5.692,5.692,0,0,0-2.635.632h-.316L12.225,38.9a3.162,3.162,0,0,1-.843-.843l1.581-2.635v-.211h.105a6.009,6.009,0,0,0,.105-5.06A6.43,6.43,0,0,0,9.59,26.667H9.274l-3.057-.949V24.665l3.057-.843H9.59a6.43,6.43,0,0,0,3.584-3.479,6.009,6.009,0,0,0-.105-5.06h-.105v-.211l-1.581-2.635.843-.843,2.635,1.581h.316a5.692,5.692,0,0,0,2.635.632,6.325,6.325,0,0,0,5.9-4.111V9.379h0l.949-3.162h1.054l.843,3.057h0v.211A6.325,6.325,0,0,0,32.571,13.7a5.693,5.693,0,0,0,2.635-.632h.316l2.635-1.581a3.162,3.162,0,0,1,.843.843L37.42,14.966v.211h-.105a6.009,6.009,0,0,0-.105,5.06,6.43,6.43,0,0,0,3.584,3.479h.316l3.057.843v1.054l-3.057.843Z" transform="translate(-2 -2)"/>
        <path id="Path_20" data-name="Path 20" d="M24.487,15a9.487,9.487,0,1,0,9.487,9.487A9.487,9.487,0,0,0,24.487,15Zm0,14.758a5.271,5.271,0,1,1,5.271-5.271A5.271,5.271,0,0,1,24.487,29.758Z" transform="translate(-1.296 -1.296)"/>
      </g>
    </g>
  </g>
</svg>
