<svg xmlns="http://www.w3.org/2000/svg" width="64.525" height="50.369" viewBox="0 0 64.525 50.369">
  <path id="Path_23016" data-name="Path 23016" d="M2249.017,793.462a2.843,2.843,0,0,0-2.8-2.879H2187.3a2.843,2.843,0,0,0-2.8,2.879v44.612a2.842,2.842,0,0,0,2.8,2.879h58.915a2.842,2.842,0,0,0,2.8-2.879Zm-5.611,2.879v24.137l-4.719-4.054a2.75,2.75,0,0,0-3.595-.006l-7.553,6.446-17.6-15.684a2.753,2.753,0,0,0-3.607-.063l-16.23,13.488V796.34ZM2190.1,835.2v-7.182l17.933-14.9,17.624,15.7a2.75,2.75,0,0,0,3.635.039l7.585-6.475,6.526,5.607v7.21Zm30.906-29.068a5.224,5.224,0,1,1,5.224,5.273A5.254,5.254,0,0,1,2221.009,806.128Z" transform="translate(-2184.492 -790.583)"/>
</svg>
