<svg id="Layer_2" data-name="Layer 2" xmlns="http://www.w3.org/2000/svg" width="53" height="53" viewBox="0 0 53 53">
  <g id="invisible_box" data-name="invisible box">
    <rect id="Rectangle_2178" data-name="Rectangle 2178" width="53" height="53" fill="none"/>
  </g>
  <g id="icons_Q2" data-name="icons Q2" transform="translate(2.221 2.221)">
    <g id="Group_12495" data-name="Group 12495">
      <path id="Path_22972" data-name="Path 22972" d="M24.885,10a8.885,8.885,0,1,0,8.885,8.885A8.885,8.885,0,0,0,24.885,10Zm0,13.328a4.443,4.443,0,1,1,4.443-4.443A4.443,4.443,0,0,1,24.885,23.328Z" transform="translate(-0.451 -1.114)"/>
      <path id="Path_22973" data-name="Path 22973" d="M26.434,2A24.323,24.323,0,1,0,43.745,9.124,24.434,24.434,0,0,0,26.434,2ZM12.884,41.1a29.321,29.321,0,0,1,13.55-3.554A29.321,29.321,0,0,1,39.984,41.1a19.881,19.881,0,0,1-27.1,0Zm30.1-3.443h0A34.1,34.1,0,0,0,26.434,33.1,34.1,34.1,0,0,0,9.886,37.652h0A19.659,19.659,0,0,1,6.443,26.434a19.992,19.992,0,1,1,39.984,0,19.659,19.659,0,0,1-3.443,11.218Z" transform="translate(-2 -2)"/>
    </g>
  </g>
</svg>
